<svg width="28" height="34" viewBox="0 0 28 34" fill="none" xmlns="http://www.w3.org/2000/svg">
<path d="M26.444 12.4244L15.5859 1.56625C14.8309 0.811251 13.6229 0.811251 12.8679 1.56625L2.00969 12.4244C1.26842 13.1794 1.26842 14.3874 2.00969 15.1424L12.8679 26.0006C13.6091 26.7419 14.8309 26.7556 15.5859 26.0006L26.444 15.1424C27.1853 14.3874 27.1853 13.1794 26.444 12.4244Z" stroke="white" stroke-miterlimit="10"/>
<path d="M3.71191 26.5635V5.20398H22.6554C23.8222 5.23143 24.7419 6.15115 24.7419 7.31796V26.5635" stroke="white" stroke-miterlimit="10"/>
<path d="M26.444 15.7053L15.5859 4.84707C14.8309 4.09207 13.6229 4.09207 12.8679 4.84707L2.00969 15.7053C1.26842 16.4603 1.26842 17.6682 2.00969 18.4232L12.8679 29.2814C13.6091 30.0227 14.8309 30.0364 15.5859 29.2814L26.444 18.4232C27.1853 17.6682 27.1853 16.4603 26.444 15.7053Z" stroke="white" stroke-miterlimit="10"/>
<path d="M21.9004 32.6995H6.53967" stroke="white" stroke-miterlimit="10"/>
<path d="M17.3841 15.0463L14.57 12.2323C14.3779 12.0401 14.0621 12.0401 13.8699 12.2323L11.0559 15.0463C10.8637 15.2385 10.8637 15.5542 11.0559 15.7464L13.8699 18.5605C14.0621 18.7527 14.3779 18.7527 14.57 18.5605L17.3841 15.7464C17.5763 15.5542 17.5763 15.2385 17.3841 15.0463Z" stroke="white" stroke-miterlimit="10"/>
</svg>
