<svg width="147" height="45" viewBox="0 0 147 45" fill="none" xmlns="http://www.w3.org/2000/svg">
<path d="M34.7039 16.6554L20.0597 2.01118C19.0415 0.992936 17.4123 0.992936 16.394 2.01118L1.7498 16.6554C0.750067 17.6737 0.750067 19.3029 1.7498 20.3211L16.394 34.9653C17.3938 35.9651 19.0415 35.9836 20.0597 34.9653L34.7039 20.3211C35.7037 19.3029 35.7037 17.6737 34.7039 16.6554Z" stroke="white" stroke-miterlimit="10"/>
<path d="M4.04553 35.7244V6.9173H29.5943C31.1679 6.95432 32.4083 8.19473 32.4083 9.76839V35.7244" stroke="white" stroke-miterlimit="10"/>
<path d="M34.7039 21.0802L20.0597 6.43593C19.0415 5.41768 17.4123 5.41768 16.394 6.43593L1.7498 21.0802C0.750067 22.0984 0.750067 23.7276 1.7498 24.7458L16.394 39.3901C17.3938 40.3898 19.0415 40.4083 20.0597 39.3901L34.7039 24.7458C35.7037 23.7276 35.7037 22.0984 34.7039 21.0802Z" stroke="white" stroke-miterlimit="10"/>
<path d="M28.576 44H7.85931" stroke="white" stroke-miterlimit="10"/>
<path d="M22.485 20.1915L18.6897 16.3962C18.4305 16.137 18.0047 16.137 17.7455 16.3962L13.9503 20.1915C13.6911 20.4507 13.6911 20.8765 13.9503 21.1357L17.7455 24.931C18.0047 25.1902 18.4305 25.1902 18.6897 24.931L22.485 21.1357C22.7442 20.8765 22.7442 20.4507 22.485 20.1915Z" stroke="white" stroke-miterlimit="10"/>
<path d="M96.0393 23.8017L87.3379 15.1004C86.727 14.4894 85.7643 14.4894 85.1533 15.1004L76.452 23.8017C75.8595 24.3942 75.8595 25.3754 76.452 25.9863L85.1533 34.6877C85.7458 35.2801 86.727 35.2987 87.3194 34.6877L96.0208 25.9863C96.6132 25.3754 96.6132 24.4127 96.0208 23.8202L96.0393 23.8017Z" stroke="white" stroke-miterlimit="10"/>
<path d="M145.785 23.5425L137.084 14.8411C136.473 14.2302 135.51 14.2302 134.899 14.8411L126.198 23.5425C125.605 24.135 125.605 25.1162 126.198 25.7271L134.899 34.4285C135.492 35.0209 136.473 35.0394 137.065 34.4285L145.767 25.7271C146.359 25.1162 146.359 24.1535 145.767 23.561L145.785 23.5425Z" stroke="white" stroke-miterlimit="10"/>
<path d="M53.9395 35.1136V18.007H69.1021C70.0277 18.007 70.7868 18.7661 70.7868 19.6918V35.1136" stroke="white" stroke-miterlimit="10"/>
<path d="M121.051 23.7461L112.35 15.0448C111.739 14.4338 110.776 14.4338 110.165 15.0448L101.464 23.7461C100.871 24.3386 100.871 25.3198 101.464 25.9307L110.165 34.6321C110.758 35.2245 111.739 35.2431 112.331 34.6321L121.033 25.9307C121.625 25.3198 121.625 24.3571 121.033 23.7646L121.051 23.7461Z" stroke="white" stroke-miterlimit="10"/>
<path d="M112.424 15.1003L103.722 6.39893" stroke="white" stroke-miterlimit="10"/>
</svg>
