<svg width="33" height="11" viewBox="0 0 33 11" fill="none" xmlns="http://www.w3.org/2000/svg">
<path d="M8.1952 4.53682L5.06891 1.41053C4.85154 1.19315 4.50373 1.19315 4.28635 1.41053L1.16007 4.53682C0.946644 4.75419 0.946644 5.102 1.16007 5.31937L4.28635 8.44566C4.49978 8.65908 4.85154 8.66304 5.06891 8.44566L8.1952 5.31937C8.40862 5.102 8.40862 4.75419 8.1952 4.53682Z" stroke="white" stroke-width="0.5" stroke-miterlimit="10"/>
<path d="M1.65015 8.6077V2.45789H7.10435C7.44029 2.46579 7.7051 2.7306 7.7051 3.06654V8.6077" stroke="white" stroke-width="0.5" stroke-miterlimit="10"/>
<path d="M8.1952 5.4814L5.06891 2.35511C4.85154 2.13773 4.50373 2.13773 4.28635 2.35511L1.16007 5.4814C0.946644 5.69877 0.946644 6.04658 1.16007 6.26395L4.28635 9.39024C4.49978 9.60366 4.85154 9.60762 5.06891 9.39024L8.1952 6.26395C8.40862 6.04658 8.40862 5.69877 8.1952 5.4814Z" stroke="white" stroke-width="0.5" stroke-miterlimit="10"/>
<path d="M6.887 10.3744H2.46436" stroke="white" stroke-width="0.5" stroke-miterlimit="10"/>
<path d="M5.58666 5.29173L4.77644 4.4815C4.72111 4.42617 4.6302 4.42617 4.57487 4.4815L3.76464 5.29173C3.70931 5.34706 3.70931 5.43796 3.76464 5.4933L4.57487 6.30352C4.6302 6.35885 4.72111 6.35885 4.77644 6.30352L5.58666 5.4933C5.642 5.43796 5.642 5.34706 5.58666 5.29173Z" stroke="white" stroke-width="0.5" stroke-miterlimit="10"/>
<path d="M21.2892 6.0624L19.4316 4.20481C19.3012 4.07439 19.0957 4.07439 18.9653 4.20481L17.1077 6.0624C16.9812 6.18888 16.9812 6.39835 17.1077 6.52878L18.9653 8.38637C19.0917 8.51284 19.3012 8.5168 19.4277 8.38637L21.2853 6.52878C21.4118 6.39835 21.4118 6.19283 21.2853 6.06636L21.2892 6.0624Z" stroke="white" stroke-width="0.5" stroke-miterlimit="10"/>
<path d="M31.9091 6.00711L30.0515 4.14952C29.9211 4.01909 29.7156 4.01909 29.5851 4.14952L27.7275 6.00711C27.6011 6.13358 27.6011 6.34305 27.7275 6.47348L29.5851 8.33107C29.7116 8.45755 29.9211 8.4615 30.0476 8.33107L31.9051 6.47348C32.0316 6.34305 32.0316 6.13753 31.9051 6.01106L31.9091 6.00711Z" stroke="white" stroke-width="0.5" stroke-miterlimit="10"/>
<path d="M12.3016 8.47732V4.82538H15.5386C15.7362 4.82538 15.8982 4.98742 15.8982 5.18504V8.47732" stroke="white" stroke-width="0.5" stroke-miterlimit="10"/>
<path d="M26.6288 6.05056L24.7712 4.19297C24.6408 4.06255 24.4353 4.06255 24.3049 4.19297L22.4473 6.05056C22.3208 6.17704 22.3208 6.38651 22.4473 6.51694L24.3049 8.37453C24.4313 8.501 24.6408 8.50496 24.7673 8.37453L26.6249 6.51694C26.7513 6.38651 26.7513 6.18099 26.6249 6.05452L26.6288 6.05056Z" stroke="white" stroke-width="0.5" stroke-miterlimit="10"/>
<path d="M24.787 4.20482L22.9294 2.34723" stroke="white" stroke-width="0.5" stroke-miterlimit="10"/>
</svg>
