<svg width="21" height="25" viewBox="0 0 21 25" fill="none" xmlns="http://www.w3.org/2000/svg">
<path d="M19.46 9.3225L11.55 1.4125C11 0.8625 10.12 0.8625 9.57 1.4125L1.66 9.3225C1.12 9.8725 1.12 10.7525 1.66 11.3025L9.57 19.2125C10.11 19.7525 11 19.7625 11.55 19.2125L19.46 11.3025C20 10.7525 20 9.8725 19.46 9.3225Z" stroke="white" stroke-miterlimit="10"/>
<path d="M2.90002 19.6225V4.0625H16.7C17.55 4.0825 18.22 4.7525 18.22 5.6025V19.6225" stroke="white" stroke-miterlimit="10"/>
<path d="M19.46 11.7125L11.55 3.80251C11 3.25251 10.12 3.25251 9.57 3.80251L1.66 11.7125C1.12 12.2625 1.12 13.1425 1.66 13.6925L9.57 21.6025C10.11 22.1425 11 22.1525 11.55 21.6025L19.46 13.6925C20 13.1425 20 12.2625 19.46 11.7125Z" stroke="white" stroke-miterlimit="10"/>
<path d="M16.15 24.0925H4.96002" stroke="white" stroke-miterlimit="10"/>
<path d="M12.86 11.2325L10.81 9.18251C10.67 9.04251 10.44 9.04251 10.3 9.18251L8.25002 11.2325C8.11002 11.3725 8.11002 11.6025 8.25002 11.7425L10.3 13.7925C10.44 13.9325 10.67 13.9325 10.81 13.7925L12.86 11.7425C13 11.6025 13 11.3725 12.86 11.2325Z" stroke="white" stroke-miterlimit="10"/>
</svg>
